<mxfile host="app.diagrams.net" modified="2023-07-10T15:15:27.070Z" agent="Mozilla/5.0 (Windows NT 10.0; Win64; x64) AppleWebKit/537.36 (KHTML, like Gecko) Chrome/114.0.0.0 Safari/537.36" etag="zH2YDA-e90Kg3pE5v9I3" version="21.5.0" type="github">
  <diagram id="_KsFbbM1c4Vf_MlxP51w" name="Page-1">
    <mxGraphModel dx="1434" dy="796" grid="1" gridSize="10" guides="1" tooltips="1" connect="1" arrows="1" fold="1" page="1" pageScale="1" pageWidth="850" pageHeight="1100" math="0" shadow="0">
      <root>
        <mxCell id="0" />
        <mxCell id="1" parent="0" />
        <mxCell id="yMU-ZAaQUFapcs6r5aY3-1" value="Client&#39;s Side" style="fontStyle=0;verticalAlign=top;align=center;spacingTop=-2;fillColor=none;rounded=0;whiteSpace=wrap;html=1;strokeColor=#00882B;strokeWidth=2;dashed=1;container=1;collapsible=0;expand=0;recursiveResize=0;" parent="1" vertex="1">
          <mxGeometry x="177" y="40" width="180" height="700" as="geometry" />
        </mxCell>
        <mxCell id="yMU-ZAaQUFapcs6r5aY3-2" value="Users" style="outlineConnect=0;fontColor=#232F3E;gradientColor=none;strokeColor=#232F3E;fillColor=#ffffff;dashed=0;verticalLabelPosition=bottom;verticalAlign=top;align=center;html=1;fontSize=12;fontStyle=0;aspect=fixed;shape=mxgraph.aws4.resourceIcon;resIcon=mxgraph.aws4.users;" parent="yMU-ZAaQUFapcs6r5aY3-1" vertex="1">
          <mxGeometry x="47" y="40" width="60" height="60" as="geometry" />
        </mxCell>
        <mxCell id="xHGTEr-8fceokaSjBUOU-3" value="" style="image;sketch=0;aspect=fixed;html=1;points=[];align=center;fontSize=12;image=img/lib/mscae/SAP_HANA_on_Azure.svg;" vertex="1" parent="yMU-ZAaQUFapcs6r5aY3-1">
          <mxGeometry x="23" y="259" width="120" height="60" as="geometry" />
        </mxCell>
        <mxCell id="yMU-ZAaQUFapcs6r5aY3-3" value="Server Side" style="fontStyle=0;verticalAlign=top;align=center;spacingTop=-2;fillColor=none;rounded=0;whiteSpace=wrap;html=1;strokeColor=#258619;strokeWidth=2;dashed=1;container=1;collapsible=0;expand=0;recursiveResize=0;fontColor=#d42121;" parent="1" vertex="1">
          <mxGeometry x="410" y="38" width="820" height="702" as="geometry" />
        </mxCell>
        <mxCell id="yMU-ZAaQUFapcs6r5aY3-29" style="edgeStyle=orthogonalEdgeStyle;rounded=0;orthogonalLoop=1;jettySize=auto;html=1;" parent="yMU-ZAaQUFapcs6r5aY3-3" source="yMU-ZAaQUFapcs6r5aY3-5" target="yMU-ZAaQUFapcs6r5aY3-6" edge="1">
          <mxGeometry relative="1" as="geometry" />
        </mxCell>
        <mxCell id="yMU-ZAaQUFapcs6r5aY3-5" value="Vue Js Portal" style="pointerEvents=1;shadow=0;dashed=0;html=1;strokeColor=none;labelPosition=center;verticalLabelPosition=bottom;verticalAlign=top;align=center;fillColor=#505050;shape=mxgraph.mscae.intune.company_portal" parent="yMU-ZAaQUFapcs6r5aY3-3" vertex="1">
          <mxGeometry x="181" y="52" width="90" height="60" as="geometry" />
        </mxCell>
        <mxCell id="yMU-ZAaQUFapcs6r5aY3-6" value="Portal Api" style="outlineConnect=0;fontColor=#232F3E;gradientColor=none;strokeColor=#ffffff;fillColor=#232F3E;dashed=0;verticalLabelPosition=middle;verticalAlign=bottom;align=center;html=1;whiteSpace=wrap;fontSize=10;fontStyle=1;spacing=3;shape=mxgraph.aws4.productIcon;prIcon=mxgraph.aws4.api_gateway;" parent="yMU-ZAaQUFapcs6r5aY3-3" vertex="1">
          <mxGeometry x="190" y="150" width="80" height="110" as="geometry" />
        </mxCell>
        <mxCell id="yMU-ZAaQUFapcs6r5aY3-9" value="Worker 2" style="outlineConnect=0;dashed=0;verticalLabelPosition=bottom;verticalAlign=top;align=center;html=1;shape=mxgraph.aws3.worker;fillColor=#D9A741;gradientColor=none;labelBackgroundColor=none;fontColor=#000000;" parent="yMU-ZAaQUFapcs6r5aY3-3" vertex="1">
          <mxGeometry x="430" y="50" width="60" height="63" as="geometry" />
        </mxCell>
        <mxCell id="yMU-ZAaQUFapcs6r5aY3-11" value="Worker N" style="outlineConnect=0;dashed=0;verticalLabelPosition=bottom;verticalAlign=top;align=center;html=1;shape=mxgraph.aws3.worker;fillColor=#D9A741;gradientColor=none;" parent="yMU-ZAaQUFapcs6r5aY3-3" vertex="1">
          <mxGeometry x="530" y="49" width="60" height="63" as="geometry" />
        </mxCell>
        <mxCell id="x4FNr3anz5mZ0z94SjzF-3" value="Worker 1" style="outlineConnect=0;dashed=0;verticalLabelPosition=bottom;verticalAlign=top;align=center;html=1;shape=mxgraph.aws3.worker;fillColor=#D9A741;gradientColor=none;labelBackgroundColor=none;fontColor=#000000;" parent="yMU-ZAaQUFapcs6r5aY3-3" vertex="1">
          <mxGeometry x="330" y="50.5" width="60" height="63" as="geometry" />
        </mxCell>
        <mxCell id="x4FNr3anz5mZ0z94SjzF-9" value="RabbitMQ Cluster" style="sketch=0;points=[[0,0,0],[0.25,0,0],[0.5,0,0],[0.75,0,0],[1,0,0],[0,1,0],[0.25,1,0],[0.5,1,0],[0.75,1,0],[1,1,0],[0,0.25,0],[0,0.5,0],[0,0.75,0],[1,0.25,0],[1,0.5,0],[1,0.75,0]];outlineConnect=0;fontColor=#232F3E;gradientColor=#FF4F8B;gradientDirection=north;fillColor=#BC1356;strokeColor=#ffffff;dashed=0;verticalLabelPosition=bottom;verticalAlign=top;align=center;html=1;fontSize=12;fontStyle=0;aspect=fixed;shape=mxgraph.aws4.resourceIcon;resIcon=mxgraph.aws4.sqs;labelBackgroundColor=none;" parent="yMU-ZAaQUFapcs6r5aY3-3" vertex="1">
          <mxGeometry x="490" y="169.5" width="78" height="78" as="geometry" />
        </mxCell>
        <mxCell id="yMU-ZAaQUFapcs6r5aY3-60" style="edgeStyle=orthogonalEdgeStyle;curved=1;rounded=0;orthogonalLoop=1;jettySize=auto;html=1;startArrow=openThin;startFill=0;strokeColor=#82c566;dashed=1;labelBackgroundColor=none;labelBorderColor=default;entryX=0.5;entryY=1;entryDx=0;entryDy=0;entryPerimeter=0;" parent="yMU-ZAaQUFapcs6r5aY3-3" source="x4FNr3anz5mZ0z94SjzF-9" target="yMU-ZAaQUFapcs6r5aY3-9" edge="1">
          <mxGeometry relative="1" as="geometry">
            <mxPoint x="120" y="320" as="targetPoint" />
            <Array as="points">
              <mxPoint x="529" y="130" />
              <mxPoint x="460" y="130" />
            </Array>
          </mxGeometry>
        </mxCell>
        <mxCell id="x4FNr3anz5mZ0z94SjzF-10" style="edgeStyle=orthogonalEdgeStyle;curved=1;rounded=0;orthogonalLoop=1;jettySize=auto;html=1;startArrow=openThin;startFill=0;strokeColor=#82c566;dashed=1;labelBackgroundColor=none;labelBorderColor=default;entryX=0.5;entryY=1;entryDx=0;entryDy=0;entryPerimeter=0;exitX=0.75;exitY=0;exitDx=0;exitDy=0;exitPerimeter=0;" parent="yMU-ZAaQUFapcs6r5aY3-3" source="x4FNr3anz5mZ0z94SjzF-9" target="yMU-ZAaQUFapcs6r5aY3-11" edge="1">
          <mxGeometry relative="1" as="geometry">
            <mxPoint x="230" y="520" as="targetPoint" />
            <mxPoint x="279" y="238" as="sourcePoint" />
          </mxGeometry>
        </mxCell>
        <mxCell id="xUTsG6EXteNMuKocuy_s-10" value="Internet" style="image;aspect=fixed;perimeter=ellipsePerimeter;html=1;align=center;shadow=0;dashed=0;spacingTop=3;image=img/lib/active_directory/internet_cloud.svg;" parent="yMU-ZAaQUFapcs6r5aY3-3" vertex="1">
          <mxGeometry x="750" y="150" width="123.81" height="78" as="geometry" />
        </mxCell>
        <mxCell id="Fcgo-apEPi93iQy3yleW-4" style="edgeStyle=orthogonalEdgeStyle;rounded=0;orthogonalLoop=1;jettySize=auto;html=1;startArrow=openThin;startFill=0;exitX=1.003;exitY=0.874;exitDx=0;exitDy=0;exitPerimeter=0;dashed=1;dashPattern=12 12;strokeColor=#2b0d0d;entryX=0.016;entryY=0.615;entryDx=0;entryDy=0;entryPerimeter=0;" parent="yMU-ZAaQUFapcs6r5aY3-3" source="xUTsG6EXteNMuKocuy_s-2" edge="1" target="xUTsG6EXteNMuKocuy_s-10">
          <mxGeometry relative="1" as="geometry">
            <mxPoint x="570" y="222" as="targetPoint" />
            <Array as="points">
              <mxPoint x="730" y="248" />
              <mxPoint x="730" y="198" />
            </Array>
            <mxPoint x="211" y="465" as="sourcePoint" />
          </mxGeometry>
        </mxCell>
        <mxCell id="xUTsG6EXteNMuKocuy_s-2" value="Web, API, APP instance 1" style="rounded=0;whiteSpace=wrap;html=1;labelBackgroundColor=none;fillStyle=dots;fillColor=none;dashed=1;align=left;verticalAlign=top;fontColor=#000000;strokeColor=#161cc0;" parent="yMU-ZAaQUFapcs6r5aY3-3" vertex="1">
          <mxGeometry x="110" y="31" width="530" height="248" as="geometry" />
        </mxCell>
        <mxCell id="xHGTEr-8fceokaSjBUOU-6" style="edgeStyle=orthogonalEdgeStyle;curved=1;rounded=0;orthogonalLoop=1;jettySize=auto;html=1;startArrow=openThin;startFill=0;strokeColor=#82c566;dashed=1;labelBackgroundColor=none;labelBorderColor=default;entryX=0.5;entryY=1;entryDx=0;entryDy=0;entryPerimeter=0;" edge="1" parent="yMU-ZAaQUFapcs6r5aY3-3" source="x4FNr3anz5mZ0z94SjzF-9" target="x4FNr3anz5mZ0z94SjzF-3">
          <mxGeometry relative="1" as="geometry">
            <mxPoint x="381" y="187" as="targetPoint" />
            <mxPoint x="450" y="150" as="sourcePoint" />
            <Array as="points">
              <mxPoint x="500" y="130" />
              <mxPoint x="360" y="130" />
            </Array>
          </mxGeometry>
        </mxCell>
        <mxCell id="xUTsG6EXteNMuKocuy_s-3" value="" style="outlineConnect=0;dashed=0;verticalLabelPosition=bottom;verticalAlign=top;align=center;html=1;shape=mxgraph.aws3.redis;fillColor=#2E73B8;gradientColor=none;" parent="yMU-ZAaQUFapcs6r5aY3-3" vertex="1">
          <mxGeometry x="380" y="177" width="60" height="63" as="geometry" />
        </mxCell>
        <mxCell id="xUTsG6EXteNMuKocuy_s-4" style="edgeStyle=orthogonalEdgeStyle;curved=1;rounded=0;orthogonalLoop=1;jettySize=auto;html=1;startArrow=openThin;startFill=0;dashed=1;fillColor=#f8cecc;strokeColor=#5a3489;entryX=0.5;entryY=0;entryDx=0;entryDy=0;entryPerimeter=0;" parent="yMU-ZAaQUFapcs6r5aY3-3" source="yMU-ZAaQUFapcs6r5aY3-6" target="xUTsG6EXteNMuKocuy_s-3" edge="1">
          <mxGeometry relative="1" as="geometry">
            <Array as="points">
              <mxPoint x="230" y="140" />
              <mxPoint x="290" y="140" />
              <mxPoint x="290" y="160" />
              <mxPoint x="370" y="160" />
            </Array>
            <mxPoint x="110" y="103" as="sourcePoint" />
            <mxPoint x="91" y="280" as="targetPoint" />
          </mxGeometry>
        </mxCell>
        <mxCell id="xHGTEr-8fceokaSjBUOU-23" value="PGBouncer" style="sketch=0;outlineConnect=0;fontColor=#232F3E;gradientColor=none;fillColor=#2E27AD;strokeColor=none;dashed=0;verticalLabelPosition=bottom;verticalAlign=top;align=center;html=1;fontSize=12;fontStyle=0;aspect=fixed;pointerEvents=1;shape=mxgraph.aws4.rds_trusted_language_extensions_for_postgresql;" vertex="1" parent="yMU-ZAaQUFapcs6r5aY3-3">
          <mxGeometry x="310" y="325" width="59" height="78" as="geometry" />
        </mxCell>
        <mxCell id="xHGTEr-8fceokaSjBUOU-24" value="Port7432" style="endArrow=classic;startArrow=classic;html=1;rounded=0;exitX=0.134;exitY=1.004;exitDx=0;exitDy=0;exitPerimeter=0;dashed=1;dashPattern=12 12;labelPosition=center;verticalLabelPosition=top;align=center;verticalAlign=bottom;" edge="1" parent="yMU-ZAaQUFapcs6r5aY3-3" source="xUTsG6EXteNMuKocuy_s-2" target="xHGTEr-8fceokaSjBUOU-23">
          <mxGeometry width="50" height="50" relative="1" as="geometry">
            <mxPoint x="218" y="359" as="sourcePoint" />
            <mxPoint x="271" y="359" as="targetPoint" />
            <Array as="points">
              <mxPoint x="181" y="364" />
            </Array>
          </mxGeometry>
        </mxCell>
        <mxCell id="xHGTEr-8fceokaSjBUOU-26" value="Port 5432" style="endArrow=classic;startArrow=classic;html=1;rounded=0;exitX=1;exitY=0.5;exitDx=0;exitDy=0;labelBackgroundColor=none;labelPosition=center;verticalLabelPosition=top;align=center;verticalAlign=bottom;" edge="1" parent="yMU-ZAaQUFapcs6r5aY3-3" target="xHGTEr-8fceokaSjBUOU-21">
          <mxGeometry width="50" height="50" relative="1" as="geometry">
            <mxPoint x="369" y="363.5" as="sourcePoint" />
            <mxPoint x="422" y="363.5" as="targetPoint" />
          </mxGeometry>
        </mxCell>
        <mxCell id="x4FNr3anz5mZ0z94SjzF-12" style="edgeStyle=orthogonalEdgeStyle;rounded=0;orthogonalLoop=1;jettySize=auto;html=1;startArrow=openThin;startFill=0;" parent="1" source="yMU-ZAaQUFapcs6r5aY3-2" target="xHGTEr-8fceokaSjBUOU-2" edge="1">
          <mxGeometry relative="1" as="geometry">
            <mxPoint x="217" y="100" as="sourcePoint" />
            <mxPoint x="427" y="87" as="targetPoint" />
            <Array as="points">
              <mxPoint x="358" y="108" />
              <mxPoint x="358" y="106" />
            </Array>
          </mxGeometry>
        </mxCell>
        <mxCell id="Fcgo-apEPi93iQy3yleW-2" value="ZATCA" style="shape=image;verticalLabelPosition=bottom;labelBackgroundColor=#ffffff;verticalAlign=top;aspect=fixed;imageAspect=0;image=data:image/png,iVBORw0KGgoAAAANSUhEUgAAAHAAAABwCAYAAADG4PRLAAAFOklEQVR4Ae2dLVP0MBSF+ZsYDAqDwaAwGAwGhcFgMBgMBoPCYDAYPAaDwmDyznmHLJed9Gzb3DZJ92Rmp9km22TPc08/st10Jyg1rcBO071X54MANh4EAiiAjSvQePflQAFsXIHGuy8HCmDjCjTefTlQABtXoPHuy4EC2LgCjXdfDhTAOhV4f38P5+fn4fHxsc4OOvVqcQ78/v4ONzc3YXd3d/U6OTkJALrEtCiALy8v4eDgYAXOQkQeYAF4SWkRAD8+PsLZ2VknOAsSgAF6KalpgHDT3d1d2Nvb6wXPggRwgG89NQvw9fU1HB0dDQZnIQI8AqDl3WpzAD8/P8PFxUUWOAsReQQCAqLF1BTA+/v7sL+/7wrPwry8vAwIkJZSEwDf3t4CLgWs2FPlESAIlFZS1QC/vr7C1dXVLODWAwIBg8CpPVULECMo7JpuXfD4Hp/BGebt7e3/Ze4u9/r6OiCQak3VAcSIyenp6SjXAdz6MQzv+14jxiBYXyIonp6eqmRYDcA4BDbmmg6CY5fXdTmA9R7HUARCbUNyVQDcNAS27ojU+03HK5SnPjd0HQKspiG5ogA9dm8AAFG73Bf3eygf6+4U5MPDwyqG5IoAhJhjh8BSYuJEpU/KPaFJtY2frNaPu3364lVndoAeQ2ApITcdm1Ce+pzHOgQGArJEmg0gohQjHR6CpbaBbbM0ZduxPxiS23QsZn0cUzYLwKmHwKKAuPZLJayPdeZYIljmunacFCCi0eP0fYjouIbE7gy7aiznbj/2FbvVOW7nmAQgog8jGPHLbPMSAbTp+Jzaa/Rd5w5w7BDY0iHj2nGK3Wo2wDlODpYKt6/LWD0BNHevzR0oDEzfMgEUwOmu7eZ2xNzt9XUZqycHyoFy4FjnMmf1LZMDt92BNlIw+jE2Grfhc11DfVbDoflsB9oGBfD3DzWpgKweIEYaANG+2P0oGJ2wdW3++Pi4080YHLd1bZ7dCIX7Wmxdm08JHtfZejaP7cU660v0w9ZFfopb+V0daN0Y82ykhg32shubIEZXwi/l62LG90zAWCe17GoL20vVxzr0Y44kgD8qd4HA+q4kgOTfs3JgV9j8XS8H/ughB/4NjNU7HQNXUkySkQN/ZJUDO+JLDuwQxmm1HCgH8lCSA7k+uaVyoBzIY0gO5PrklsqBciCPITmQ65NbKgfKgTyG5ECuT26pHCgH8hiSA7k+uaVyoBzIY0gO5PrklsqBciCPITmQ65NbKgfKgTyG5ECuT26pHCgH8hiSA7k+uaVyoBzIY0gO5PrklsqBciCPITmQ65NbKgfKgTyG5ECuT26pHCgH8hiSA7k+uaVyoBzIY0gO5PrklsqBciCPITmQ65NbKgfKgb8xhD/9Yy4U+2LThWDKflvX5tlsE3C1rWvz7NECmEXY1rV59gdPW8/m2azE6IetizybXeNXxWE5Vweig0yIbS8DRO8kgDPOlVY1QEzszXaX2+4+fP8pZrJ3ceDDw4Prc4mWDhvHcK8J0LMAohNsLrSlg8j5fphLzeMpL6MBejwyLkeApXw291F2gwHiyWNodCkC1vA9ch4OMgggHmClExU+J+jYgMCzDZ+fnwdfZQwCqOu8aeBF6Di5GZoEcMbrwAiqaymAFcHogsTWC6AA8j1wak5sHBf18tFgzGPqBh0DOV6VllBAAEuo7timADqKWWJTAlhCdcc2BdBRzBKbEsASqju2KYCOYpbYlACWUN2xTQF0FLPEpgSwhOqObQqgo5glNiWAJVR3bFMAHcUssSkBLKG6Y5v/ANeJHdCbwqsjAAAAAElFTkSuQmCC;" parent="1" vertex="1">
          <mxGeometry x="1337" y="162" width="130" height="130" as="geometry" />
        </mxCell>
        <mxCell id="Fcgo-apEPi93iQy3yleW-3" value="" style="endArrow=classic;startArrow=classic;html=1;rounded=0;entryX=0;entryY=0.5;entryDx=0;entryDy=0;exitX=1;exitY=0.5;exitDx=0;exitDy=0;" parent="1" source="xUTsG6EXteNMuKocuy_s-10" target="Fcgo-apEPi93iQy3yleW-2" edge="1">
          <mxGeometry width="50" height="50" relative="1" as="geometry">
            <mxPoint x="1140" y="280" as="sourcePoint" />
            <mxPoint x="1190" y="230" as="targetPoint" />
          </mxGeometry>
        </mxCell>
        <mxCell id="-8jvjZ6w2DFLw9TIHbP5-4" value="Ports Group A-8081, 8082, 8083, 8084, 8085,15672, 25672, 5672, 4369" style="rounded=0;whiteSpace=wrap;html=1;labelBackgroundColor=none;fillStyle=dots;fillColor=none;dashed=1;align=left;verticalAlign=top;fontColor=#000000;strokeColor=#161cc0;" parent="1" vertex="1">
          <mxGeometry x="1314" y="370" width="202" height="90" as="geometry" />
        </mxCell>
        <mxCell id="xHGTEr-8fceokaSjBUOU-2" value="" style="image;sketch=0;aspect=fixed;html=1;points=[];align=center;fontSize=12;image=img/lib/mscae/DNS.svg;" vertex="1" parent="1">
          <mxGeometry x="340" y="80" width="79" height="79" as="geometry" />
        </mxCell>
        <mxCell id="xHGTEr-8fceokaSjBUOU-4" style="edgeStyle=orthogonalEdgeStyle;rounded=0;orthogonalLoop=1;jettySize=auto;html=1;startArrow=openThin;startFill=0;" edge="1" parent="1" source="xHGTEr-8fceokaSjBUOU-3" target="xHGTEr-8fceokaSjBUOU-2">
          <mxGeometry relative="1" as="geometry">
            <mxPoint x="294" y="244" as="sourcePoint" />
            <mxPoint x="350" y="244" as="targetPoint" />
            <Array as="points">
              <mxPoint x="270" y="242" />
              <mxPoint x="350" y="242" />
            </Array>
          </mxGeometry>
        </mxCell>
        <mxCell id="xHGTEr-8fceokaSjBUOU-9" value="Vue Js Portal" style="pointerEvents=1;shadow=0;dashed=0;html=1;strokeColor=none;labelPosition=center;verticalLabelPosition=bottom;verticalAlign=top;align=center;fillColor=#505050;shape=mxgraph.mscae.intune.company_portal" vertex="1" parent="1">
          <mxGeometry x="601" y="525" width="90" height="60" as="geometry" />
        </mxCell>
        <mxCell id="xHGTEr-8fceokaSjBUOU-10" value="Portal Api" style="outlineConnect=0;fontColor=#232F3E;gradientColor=none;strokeColor=#ffffff;fillColor=#232F3E;dashed=0;verticalLabelPosition=middle;verticalAlign=bottom;align=center;html=1;whiteSpace=wrap;fontSize=10;fontStyle=1;spacing=3;shape=mxgraph.aws4.productIcon;prIcon=mxgraph.aws4.api_gateway;" vertex="1" parent="1">
          <mxGeometry x="610" y="623" width="80" height="110" as="geometry" />
        </mxCell>
        <mxCell id="xHGTEr-8fceokaSjBUOU-11" value="Worker 2" style="outlineConnect=0;dashed=0;verticalLabelPosition=bottom;verticalAlign=top;align=center;html=1;shape=mxgraph.aws3.worker;fillColor=#D9A741;gradientColor=none;labelBackgroundColor=none;fontColor=#000000;" vertex="1" parent="1">
          <mxGeometry x="850" y="523" width="60" height="63" as="geometry" />
        </mxCell>
        <mxCell id="xHGTEr-8fceokaSjBUOU-12" value="Worker N" style="outlineConnect=0;dashed=0;verticalLabelPosition=bottom;verticalAlign=top;align=center;html=1;shape=mxgraph.aws3.worker;fillColor=#D9A741;gradientColor=none;" vertex="1" parent="1">
          <mxGeometry x="950" y="522" width="60" height="63" as="geometry" />
        </mxCell>
        <mxCell id="xHGTEr-8fceokaSjBUOU-13" value="Worker 1" style="outlineConnect=0;dashed=0;verticalLabelPosition=bottom;verticalAlign=top;align=center;html=1;shape=mxgraph.aws3.worker;fillColor=#D9A741;gradientColor=none;labelBackgroundColor=none;fontColor=#000000;" vertex="1" parent="1">
          <mxGeometry x="750" y="523.5" width="60" height="63" as="geometry" />
        </mxCell>
        <mxCell id="xHGTEr-8fceokaSjBUOU-15" style="edgeStyle=orthogonalEdgeStyle;curved=1;rounded=0;orthogonalLoop=1;jettySize=auto;html=1;startArrow=openThin;startFill=0;strokeColor=#82c566;dashed=1;labelBackgroundColor=none;labelBorderColor=default;entryX=0.5;entryY=0;entryDx=0;entryDy=0;entryPerimeter=0;exitX=0.811;exitY=1.004;exitDx=0;exitDy=0;exitPerimeter=0;" edge="1" parent="1" source="xUTsG6EXteNMuKocuy_s-2" target="xHGTEr-8fceokaSjBUOU-11">
          <mxGeometry relative="1" as="geometry">
            <mxPoint x="540" y="793" as="targetPoint" />
            <Array as="points">
              <mxPoint x="950" y="470" />
              <mxPoint x="880" y="470" />
            </Array>
            <mxPoint x="949" y="642.5" as="sourcePoint" />
          </mxGeometry>
        </mxCell>
        <mxCell id="xHGTEr-8fceokaSjBUOU-16" style="edgeStyle=orthogonalEdgeStyle;curved=1;rounded=0;orthogonalLoop=1;jettySize=auto;html=1;startArrow=openThin;startFill=0;strokeColor=#82c566;dashed=1;labelBackgroundColor=none;labelBorderColor=default;exitX=0.832;exitY=1.008;exitDx=0;exitDy=0;exitPerimeter=0;" edge="1" parent="1" source="xUTsG6EXteNMuKocuy_s-2" target="xHGTEr-8fceokaSjBUOU-12">
          <mxGeometry relative="1" as="geometry">
            <mxPoint x="650" y="993" as="targetPoint" />
            <mxPoint x="968.5" y="642.5" as="sourcePoint" />
          </mxGeometry>
        </mxCell>
        <mxCell id="xHGTEr-8fceokaSjBUOU-17" style="edgeStyle=orthogonalEdgeStyle;curved=1;rounded=0;orthogonalLoop=1;jettySize=auto;html=1;startArrow=openThin;startFill=0;strokeColor=#82c566;dashed=1;labelBackgroundColor=none;labelBorderColor=default;entryX=0.5;entryY=0;entryDx=0;entryDy=0;entryPerimeter=0;exitX=0.772;exitY=1.012;exitDx=0;exitDy=0;exitPerimeter=0;" edge="1" parent="1" source="xUTsG6EXteNMuKocuy_s-2" target="xHGTEr-8fceokaSjBUOU-13">
          <mxGeometry relative="1" as="geometry">
            <mxPoint x="801" y="660" as="targetPoint" />
            <mxPoint x="920" y="642.5" as="sourcePoint" />
            <Array as="points">
              <mxPoint x="929" y="350" />
              <mxPoint x="920" y="350" />
              <mxPoint x="920" y="460" />
              <mxPoint x="780" y="460" />
            </Array>
          </mxGeometry>
        </mxCell>
        <mxCell id="xHGTEr-8fceokaSjBUOU-19" style="edgeStyle=orthogonalEdgeStyle;curved=1;rounded=0;orthogonalLoop=1;jettySize=auto;html=1;startArrow=openThin;startFill=0;dashed=1;fillColor=#f8cecc;strokeColor=#5a3489;entryX=0.721;entryY=1.024;entryDx=0;entryDy=0;entryPerimeter=0;" edge="1" parent="1" source="xHGTEr-8fceokaSjBUOU-10" target="xUTsG6EXteNMuKocuy_s-2">
          <mxGeometry relative="1" as="geometry">
            <Array as="points">
              <mxPoint x="650" y="613" />
              <mxPoint x="710" y="613" />
              <mxPoint x="710" y="480" />
              <mxPoint x="860" y="480" />
              <mxPoint x="860" y="370" />
              <mxPoint x="902" y="370" />
            </Array>
            <mxPoint x="530" y="576" as="sourcePoint" />
            <mxPoint x="830" y="650" as="targetPoint" />
          </mxGeometry>
        </mxCell>
        <mxCell id="xHGTEr-8fceokaSjBUOU-20" value="Web, API, APP instance 2" style="rounded=0;whiteSpace=wrap;html=1;labelBackgroundColor=none;fillStyle=dots;fillColor=none;dashed=1;align=left;verticalAlign=top;fontColor=#000000;strokeColor=#161cc0;" vertex="1" parent="1">
          <mxGeometry x="519" y="486" width="530" height="248" as="geometry" />
        </mxCell>
        <mxCell id="xHGTEr-8fceokaSjBUOU-21" value="" style="image;sketch=0;aspect=fixed;html=1;points=[];align=center;fontSize=12;image=img/lib/mscae/Azure_Database_for_PostgreSQL_servers.svg;" vertex="1" parent="1">
          <mxGeometry x="1097" y="337" width="55.48" height="73" as="geometry" />
        </mxCell>
        <mxCell id="xHGTEr-8fceokaSjBUOU-22" value="" style="image;sketch=0;aspect=fixed;html=1;points=[];align=center;fontSize=12;image=img/lib/mscae/Azure_Database_for_PostgreSQL_servers.svg;" vertex="1" parent="1">
          <mxGeometry x="1098" y="445" width="55.48" height="73" as="geometry" />
        </mxCell>
        <mxCell id="xHGTEr-8fceokaSjBUOU-25" value="Port 7432" style="endArrow=classic;startArrow=classic;html=1;rounded=0;exitX=0.117;exitY=0.008;exitDx=0;exitDy=0;exitPerimeter=0;dashed=1;dashPattern=12 12;labelPosition=center;verticalLabelPosition=bottom;align=center;verticalAlign=top;" edge="1" parent="1" source="xHGTEr-8fceokaSjBUOU-20" target="xHGTEr-8fceokaSjBUOU-23">
          <mxGeometry width="50" height="50" relative="1" as="geometry">
            <mxPoint x="601" y="337" as="sourcePoint" />
            <mxPoint x="730" y="412" as="targetPoint" />
            <Array as="points">
              <mxPoint x="592" y="410" />
            </Array>
          </mxGeometry>
        </mxCell>
        <mxCell id="xHGTEr-8fceokaSjBUOU-27" value="Port 5432" style="endArrow=classic;startArrow=classic;html=1;rounded=0;labelPosition=center;verticalLabelPosition=top;align=center;verticalAlign=bottom;" edge="1" parent="1" source="xHGTEr-8fceokaSjBUOU-23" target="xHGTEr-8fceokaSjBUOU-22">
          <mxGeometry width="50" height="50" relative="1" as="geometry">
            <mxPoint x="789" y="411.5" as="sourcePoint" />
            <mxPoint x="1154" y="374" as="targetPoint" />
          </mxGeometry>
        </mxCell>
        <mxCell id="xHGTEr-8fceokaSjBUOU-28" style="edgeStyle=orthogonalEdgeStyle;rounded=0;orthogonalLoop=1;jettySize=auto;html=1;startArrow=openThin;startFill=0;dashed=1;dashPattern=12 12;strokeColor=#2b0d0d;entryX=0.25;entryY=1;entryDx=0;entryDy=0;" edge="1" parent="1" source="xHGTEr-8fceokaSjBUOU-20" target="xUTsG6EXteNMuKocuy_s-10">
          <mxGeometry relative="1" as="geometry">
            <mxPoint x="1162" y="491" as="targetPoint" />
            <Array as="points">
              <mxPoint x="1140" y="541" />
              <mxPoint x="1140" y="540" />
              <mxPoint x="1195" y="540" />
            </Array>
            <mxPoint x="1052" y="541" as="sourcePoint" />
          </mxGeometry>
        </mxCell>
      </root>
    </mxGraphModel>
  </diagram>
</mxfile>
